<svg version="1.1" id="Layer_1" xmlns="http://www.w3.org/2000/svg" xmlns:xlink="http://www.w3.org/1999/xlink" x="0px" y="0px"
	 width="100%" viewBox="0 0 200 200" enable-background="new 0 0 200 200" xml:space="preserve">
<path fill="#010000" opacity="1.000000" stroke="none" 
	d="
M116.000000,201.000000 
	C77.357201,201.000000 39.214397,201.000000 1.035799,201.000000 
	C1.035799,134.398911 1.035799,67.797783 1.035799,1.098330 
	C67.559296,1.098330 134.118790,1.098330 200.839142,1.098330 
	C200.839142,67.666351 200.839142,134.333145 200.839142,201.000000 
	C172.798065,201.000000 144.649033,201.000000 116.000000,201.000000 
M177.046310,121.551727 
	C177.981659,115.146446 179.672455,108.748260 179.732742,102.334755 
	C180.212204,51.316380 134.328674,13.733420 84.376350,23.971649 
	C46.774963,31.678431 19.120874,68.921494 22.223028,106.286011 
	C25.642159,147.468430 59.025864,179.223160 99.813889,179.787506 
	C135.798340,180.285400 165.173126,158.134979 177.046310,121.551727 
z"/>
<path fill="#E5C349" opacity="1.000000" stroke="none" 
	d="
M176.977798,121.952461 
	C165.173126,158.134979 135.798340,180.285400 99.813889,179.787506 
	C59.025864,179.223160 25.642159,147.468430 22.223028,106.286011 
	C19.120874,68.921494 46.774963,31.678431 84.376350,23.971649 
	C134.328674,13.733420 180.212204,51.316380 179.732742,102.334755 
	C179.672455,108.748260 177.981659,115.146446 176.977798,121.952461 
M83.468445,168.217560 
	C116.258545,176.786118 152.289703,159.581024 164.172516,129.386414 
	C156.528793,121.212044 148.772873,112.917679 140.740372,104.327530 
	C137.803482,107.400177 135.344040,109.881950 132.989853,112.459862 
	C130.154617,115.564522 127.260498,115.657982 124.469666,112.591156 
	C121.462257,109.286324 118.640785,105.812286 115.317329,101.919052 
	C111.223465,106.267517 108.276184,109.420135 105.303848,112.548943 
	C102.453659,115.549187 99.576912,115.547523 96.701981,112.562271 
	C93.642609,109.385498 90.577309,106.214439 86.872803,102.375870 
	C83.251938,106.331795 80.298851,109.709282 77.176369,112.922150 
	C74.641373,115.530518 71.967171,115.513779 69.385567,112.810493 
	C66.773277,110.075089 64.113518,107.385040 61.253933,104.448578 
	C54.064995,112.187973 47.429085,119.608192 40.453686,126.694237 
	C37.955059,129.232498 38.085331,131.106384 39.707726,133.954514 
	C49.475090,151.101089 63.625137,162.619904 83.468445,168.217560 
M115.182724,63.308121 
	C132.583359,81.930862 149.984009,100.553612 167.656250,119.467041 
	C175.193863,95.523918 167.499069,62.842056 140.800995,44.031780 
	C115.627640,26.295748 81.111671,27.551844 56.854275,47.355282 
	C32.354931,67.356247 27.365799,99.503517 34.526245,119.492920 
	C39.531380,114.143257 44.393761,108.979073 49.220173,103.781479 
	C64.726509,87.082657 80.206619,70.359459 95.725906,53.672691 
	C100.146606,48.919445 101.810364,48.936382 106.233345,53.627651 
	C109.085190,56.652477 111.868881,59.741558 115.182724,63.308121 
M111.046463,72.453285 
	C107.792061,68.948143 104.537659,65.442993 101.001884,61.634804 
	C89.703278,73.806480 78.679535,85.682045 67.502457,97.722809 
	C69.514572,99.824295 71.203102,101.587814 73.501671,103.988472 
	C76.758255,100.500229 79.663071,97.341064 82.621674,94.233109 
	C85.582733,91.122559 88.573189,90.987022 91.618767,94.197800 
	C94.570709,97.309875 97.595421,100.352913 101.053169,103.903801 
	C104.219131,100.608017 106.910530,97.700363 109.717484,94.908905 
	C113.970940,90.678909 115.515694,90.625580 119.599403,94.796021 
	C122.485023,97.742905 125.145294,100.910454 127.515335,103.545029 
	C130.455612,101.291740 132.540222,99.694183 134.850540,97.923668 
	C126.727905,89.220940 119.136398,81.087265 111.046463,72.453285 
z"/>
<path fill="#020101" opacity="1.000000" stroke="none" 
	d="
M83.067108,168.120590 
	C63.625137,162.619904 49.475090,151.101089 39.707726,133.954514 
	C38.085331,131.106384 37.955059,129.232498 40.453686,126.694237 
	C47.429085,119.608192 54.064995,112.187973 61.253933,104.448578 
	C64.113518,107.385040 66.773277,110.075089 69.385567,112.810493 
	C71.967171,115.513779 74.641373,115.530518 77.176369,112.922150 
	C80.298851,109.709282 83.251938,106.331795 86.872803,102.375870 
	C90.577309,106.214439 93.642609,109.385498 96.701981,112.562271 
	C99.576912,115.547523 102.453659,115.549187 105.303848,112.548943 
	C108.276184,109.420135 111.223465,106.267517 115.317329,101.919052 
	C118.640785,105.812286 121.462257,109.286324 124.469666,112.591156 
	C127.260498,115.657982 130.154617,115.564522 132.989853,112.459862 
	C135.344040,109.881950 137.803482,107.400177 140.740372,104.327530 
	C148.772873,112.917679 156.528793,121.212044 164.172516,129.386414 
	C152.289703,159.581024 116.258545,176.786118 83.067108,168.120590 
z"/>
<path fill="#020101" opacity="1.000000" stroke="none" 
	d="
M114.932922,63.054977 
	C111.868881,59.741558 109.085190,56.652477 106.233345,53.627651 
	C101.810364,48.936382 100.146606,48.919445 95.725906,53.672691 
	C80.206619,70.359459 64.726509,87.082657 49.220173,103.781479 
	C44.393761,108.979073 39.531380,114.143257 34.526245,119.492920 
	C27.365799,99.503517 32.354931,67.356247 56.854275,47.355282 
	C81.111671,27.551844 115.627640,26.295748 140.800995,44.031780 
	C167.499069,62.842056 175.193863,95.523918 167.656250,119.467041 
	C149.984009,100.553612 132.583359,81.930862 114.932922,63.054977 
z"/>
<path fill="#040301" opacity="1.000000" stroke="none" 
	d="
M111.295677,72.703445 
	C119.136398,81.087265 126.727905,89.220940 134.850540,97.923668 
	C132.540222,99.694183 130.455612,101.291740 127.515335,103.545029 
	C125.145294,100.910454 122.485023,97.742905 119.599403,94.796021 
	C115.515694,90.625580 113.970940,90.678909 109.717484,94.908905 
	C106.910530,97.700363 104.219131,100.608017 101.053169,103.903801 
	C97.595421,100.352913 94.570709,97.309875 91.618767,94.197800 
	C88.573189,90.987022 85.582733,91.122559 82.621674,94.233109 
	C79.663071,97.341064 76.758255,100.500229 73.501671,103.988472 
	C71.203102,101.587814 69.514572,99.824295 67.502457,97.722809 
	C78.679535,85.682045 89.703278,73.806480 101.001884,61.634804 
	C104.537659,65.442993 107.792061,68.948143 111.295677,72.703445 
z"/>
</svg>